<?xml version="1.0" encoding="utf-8"?>
<!-- Generator: Adobe Illustrator 25.1.0, SVG Export Plug-In . SVG Version: 6.00 Build 0)  -->
<svg version="1.1" id="Layer_1" xmlns="http://www.w3.org/2000/svg" xmlns:xlink="http://www.w3.org/1999/xlink" x="0px" y="0px"
	 viewBox="0 0 190 430" style="enable-background:new 0 0 190 430;" xml:space="preserve">
<style type="text/css">
	.st0{fill:#E5E5E5;}
	.st1{fill:#E5765D;}
	.st2{fill:#FED364;}
	.st3{fill:#263740;}
	.st4{fill:#BE5347;}
	.st5{fill:#F1B155;}
	.st6{fill:#C1E1F1;}
</style>
<g>
	<path class="st0" d="M60.76,51.62c0.66-0.16,0.82-0.75,1.04-1.24c2.4-4.91,5.23-9.53,8.13-14.14c0.58,0.03,1.08,0.22,1.59,0.48
		c4.73,2.44,9.66,4.43,14.74,6.02c11.12,3.48,22.47,4.64,34.03,3.75c8.7-0.66,17.1-2.63,25.23-5.79c0.59-0.23,1.18-0.57,1.85-0.37
		c2.01,4.07,3.99,8.12,5.64,12.34c0.84,2.17,1.65,4.36,2.43,6.54c0.13,0.32,0.25,0.58,0.52,0.76c-0.3,0.73,0.2,1.31,0.41,1.92
		c5.7,17.62,8.24,35.72,8.38,54.17c0.11,16.07-1.44,32.03-3.29,47.94c-1.97,16.88-4.72,33.61-8.02,50.25
		c-0.08,0.44-0.13,0.89-0.19,1.31c0.24,0.51,0.14,1.01,0.05,1.54c-0.68,3.72-1.5,7.43-2.33,11.13c-2.02,8.94-4.08,17.82-6.57,26.58
		c-1.01,3.57-2.08,7.1-3.21,10.66c-0.15,0.51-0.34,1.01-0.87,1.26c-0.73,1.79-1.45,3.55-2.17,5.34c-0.34,0.76-1.03,0.49-1.58,0.46
		c-4.02-0.19-8.05-0.38-12.08-0.63c-1.79-0.14-3.61-0.1-5.42-0.34c-2.1-0.1-4.21-0.17-6.33-0.31c-0.52-0.03-1.04-0.01-1.49-0.31
		c-0.57-0.6-0.43-1.37-0.44-2.07c-0.04-5.49-0.16-10.98-0.57-16.44c-0.56-7.17-1.32-14.3-3.22-21.26c-0.64-2.37-1.38-4.71-2.65-6.86
		c-0.12-0.21-0.24-0.42-0.38-0.62c-1.92-2.75-4.18-2.84-6.27-0.21c-2.26,2.87-3.56,6.22-4.7,9.62c-3.66,11.09-5.37,22.56-6.72,34.12
		c-0.09,0.81,0.02,1.72-0.75,2.33c-0.72,0.36-1.5,0.17-2.25,0.12c-1.88-0.06-3.76-0.18-5.63-0.3c-4.02-0.14-8.05-0.38-12.06-0.61
		c-3.02-0.15-6.04-0.29-9.06-0.5c-0.61-0.04-1.33,0.07-1.7-0.67c-0.55-1.83-1.1-3.64-1.65-5.48c-0.77-0.56-0.79-1.47-0.95-2.27
		c-0.83-3.77-1.5-7.58-2.16-11.39c-2.05-11.87-3.54-23.81-4.74-35.81c-0.08-0.91-0.34-1.85,0.16-2.72
		c-0.58-7.55-1.24-15.08-1.66-22.63c-1.31-23.57-1.63-47.17,0.18-70.72c1.78-22.24,6.94-43.7,16.66-63.96
		C60.83,52.33,61.31,52,60.76,51.62z"/>
	<path class="st1" d="M140.35,266.7c1.53-5.05,3.09-10.09,4.46-15.18c3.08-11.42,5.75-22.92,8.09-34.5
		c0.09-0.47,0.25-0.93,0.36-1.41c4.67,0.77,8.33,3.38,11.62,6.57c4.91,4.77,8.61,10.41,11.86,16.38c2.88,5.33,5.37,10.85,7.42,16.54
		c2.09,5.75,2.56,11.8,2.76,17.86c0.72,20.52-1.21,40.84-4.85,61.03c-0.5,2.81-1.12,5.62-2.14,8.31c-1.4,3.72-3.94,5.04-7.75,3.91
		c-3.81-1.13-6.82-3.58-9.67-6.24c-1.33-1.24-2.53-2.59-3.64-4.02c-1.04-1.33-1.67-2.84-1.98-4.5c-1.13-5.97-1.19-12.03-1.24-18.07
		c-0.1-9.03,0.14-18.06,0.68-27.09c0.14-2.37-0.64-4.16-2.07-5.82c-3.19-3.78-6.95-6.95-10.47-10.39
		C142.67,268.94,141.5,267.82,140.35,266.7z"/>
	<path class="st1" d="M45.6,209.98c0.7,6.25,1.33,12.48,2.12,18.73c1.42,11.12,3.06,22.19,5.53,33.12c0.04,0.12,0,0.25,0.01,0.36
		c-5.19,4.28-10.86,7.97-15.69,12.67c-1.36,1.32-2.07,2.81-2.19,4.78c-0.67,12.44-1.54,24.88-3.52,37.2
		c-0.34,2.07-0.78,4.11-1.25,6.17c-0.6,2.78-1.87,5.19-4.04,7.14c-3.53,3.18-7.3,5.95-11.9,7.43c-0.89,0.29-1.8,0.42-2.73,0.46
		c-2.83,0.09-4.8-1.28-5.67-3.97c-0.88-2.73-1.19-5.6-1.44-8.45c-1.69-21.08-1.31-42.12,1.53-63.11
		c1.44-10.59,5.66-19.93,11.39-28.74c4.18-6.41,8.71-12.52,14.59-17.48C36.23,213.01,40.42,210.45,45.6,209.98z"/>
	<path class="st1" d="M68.29,298.86c-2.46-0.09-4.89-0.19-7.36-0.31c-2.31-0.37-4.66-0.33-6.98-0.47c-4.97-0.29-7.95-3.6-7.7-8.58
		c0.23-4.58,0.58-9.17,0.69-13.76c0.14-4.84,3.71-7.81,7.38-7.89c0.2,0,0.37-0.13,0.56-0.19c1.58,0.37,3.21,0.27,4.81,0.38
		c5.64,0.32,11.27,0.59,16.9,0.89c0.35,0.02,0.72,0.09,1.06,0.14c0.9,0.4,0.67,1.21,0.59,1.9c-0.27,3.17-0.53,6.34-0.74,9.51
		c-0.38,5.64-0.54,11.27-0.65,16.89c-0.02,0.6,0.06,1.22-0.21,1.77c-0.36,0.49-0.88,0.51-1.4,0.47c-1.91-0.07-3.83-0.25-5.75-0.32
		C69.04,299.29,68.71,299,68.29,298.86z"/>
	<path class="st1" d="M132.69,302.34c-2.43-0.39-4.87-0.35-7.3-0.48c-0.71,0.27-1.44,0.36-2.2,0.26c-1.52-0.16-3.01-0.13-4.53-0.24
		c-0.56-0.04-1.13-0.02-1.55-0.5c-0.3-0.52-0.22-1.1-0.18-1.66c0.83-8.83,1.28-17.68,1.44-26.55c0.02-0.74-0.16-1.58,0.74-2.02
		c5.87,0.3,11.74,0.58,17.61,0.87c0.49,0.02,0.94-0.01,1.42-0.01c0.63,0.17,1.24,0.32,1.86,0.52c3.25,1.03,5.37,4.03,5.22,7.58
		c-0.22,4.99-0.44,9.98-0.78,14.96c-0.31,4.6-3.67,7.49-8.26,7.29C135.04,302.33,133.86,302.14,132.69,302.34z"/>
	<path class="st1" d="M147.41,40.33c-2.68,1.41-5.59,2.28-8.49,3.11c-23.53,6.74-46.22,4.57-68.04-6.53
		c-0.36-0.18-0.78-0.28-0.95-0.68c4.36-6.43,9.11-12.59,14.63-18.09c5.26-5.27,10.89-10.04,17.48-13.59
		c1.66-0.9,3.43-1.62,5.22-2.23c2.25-0.74,4.42-0.62,6.59,0.33c4.25,1.88,7.89,4.7,11.29,7.79c8.15,7.43,14.58,16.21,19.98,25.75
		C145.88,37.58,146.65,38.96,147.41,40.33z"/>
	<path class="st2" d="M132.69,302.34c-1.33,21.81-5.08,43.24-10.32,64.44c-3.49,14.15-7.65,28.09-13.72,41.41
		c-2.59,5.69-5.49,11.22-9.75,15.89c-1.23,1.35-2.59,2.53-4.19,3.45c-3.24,1.84-6.31,1.6-9.29-0.59c-2.62-1.93-4.42-4.55-6.01-7.35
		c-3.34-5.84-5.53-12.18-7.39-18.6c-4.62-15.95-7.23-32.28-9.05-48.75c-1.97-17.84-2.94-35.73-2.09-53.69
		c0.12-0.38,0.46-0.46,0.78-0.45c2.12,0.04,4.22,0.05,6.33,0.37c0.15,0.02,0.29,0.11,0.42,0.2c0.58,0.53,0.46,1.24,0.44,1.93
		c-0.44,8.83-0.37,17.66,0.26,26.49c0.8,10.97,2.33,21.8,5.48,32.39c1.69,5.68,3.96,11.07,7.22,16.04c1.86,2.84,4.16,5.23,7.37,6.62
		c3.65,1.58,7.07,0.81,10.18-1.35c4.48-3.14,7.43-7.56,9.96-12.29c2.99-5.61,5.23-11.52,7.12-17.59
		c4.73-15.28,7.04-30.95,8.05-46.86c0.06-0.82-0.08-1.74,0.67-2.37c0.43-0.28,0.91-0.27,1.4-0.25c1.56,0.08,3.12,0.18,4.7,0.25
		C131.82,301.7,132.43,301.69,132.69,302.34z"/>
	<path class="st3" d="M137.46,96.31c10.36,18.23,4.08,41.31-14.04,51.66c-18.17,10.35-41.33,4.04-51.64-14.05
		c-10.37-18.25-4.03-41.31,14.22-51.68C104.09,71.97,127.26,78.3,137.46,96.31z"/>
	<path class="st1" d="M85.41,269.4c0.47-0.49,0.32-1.14,0.39-1.74c1.2-10.7,2.82-21.36,5.84-31.72c1.11-3.8,2.41-7.54,4.44-10.95
		c0.67-1.11,1.41-2.16,2.45-2.98c1.77-1.44,3.44-1.31,5.01,0.35c1.4,1.51,2.22,3.36,2.88,5.27c2.3,6.55,3.22,13.37,3.89,20.25
		c0.71,7.14,0.97,14.31,1,21.48c0,0.48-0.12,0.96,0.12,1.41c0.42,0.48,0.36,1.05,0.35,1.62c-0.1,8.78-0.55,17.54-1.35,26.27
		c-0.07,0.8-0.11,1.6-0.15,2.41c-0.52,3.26-0.8,6.56-1.25,9.84c-1.19,8.6-2.88,17.09-5.41,25.4c-1.09,3.62-2.49,7.17-4.63,10.33
		c-0.5,0.73-1.07,1.4-1.76,1.99c-1.95,1.66-4.02,1.56-5.78-0.33c-1.3-1.38-2.08-3.07-2.76-4.78c-1.56-3.96-2.38-8.1-3.05-12.3
		c-1.61-9.95-2.04-19.95-2.09-30.02c0.01-0.56,0.02-1.13,0.08-1.7c-0.13-3.42,0.04-6.85,0.16-10.24c0.22-6.2,0.6-12.37,1.23-18.54
		C85.09,270.29,85.08,269.79,85.41,269.4z"/>
	<path class="st4" d="M85.41,269.4c0.33,1.21-0.04,2.4-0.14,3.58c-0.74,7.92-1.02,15.85-1.24,23.81c-0.03,0.91,0,1.84,0.04,2.77
		c-0.26,0.37-0.63,0.45-1.06,0.44c-1.8-0.11-3.59-0.11-5.36-0.29c-0.44-0.03-0.88-0.08-1.09-0.57c-0.31-1.75-0.08-3.53-0.07-5.3
		c0.12-5.6,0.36-11.19,0.81-16.76c0.17-2.17,0.38-4.33,0.55-6.5c0.05-0.5,0.15-1.04-0.18-1.52
		C80.26,268.99,82.83,269.24,85.41,269.4z"/>
	<path class="st4" d="M110.05,300.94c-0.57-0.65-0.16-1.39-0.09-2.04c0.84-9.15,1.25-18.31,1.38-27.49c0-0.2,0.05-0.39,0.08-0.58
		c2.57,0,5.15,0.16,7.71,0.38c-0.43,0.67-0.27,1.42-0.28,2.12c-0.11,7.27-0.47,14.53-1.01,21.77c-0.17,2.08-0.4,4.15-0.6,6.22
		c-0.22,0.44-0.63,0.45-1.04,0.43c-1.68-0.09-3.35-0.14-5.02-0.23C110.74,301.46,110.28,301.39,110.05,300.94z"/>
	<path class="st5" d="M110.05,300.94c2.39,0.13,4.81,0.24,7.19,0.35c2.71,0.2,5.45,0.38,8.16,0.57c-0.39,0.34-0.32,0.8-0.35,1.24
		c-0.41,8.34-1.35,16.6-2.71,24.85c-0.64,3.92-1.43,7.84-2.34,11.72c-0.59,2.46-1.15,4.94-1.86,7.39
		c-2.24,7.78-4.88,15.42-8.85,22.53c-2.12,3.79-4.56,7.3-7.82,10.22c-2.88,2.56-6.16,4.14-10.14,3.5c-3.21-0.52-5.72-2.35-7.78-4.76
		c-3.88-4.58-6.4-9.92-8.31-15.55c-3.26-9.58-4.97-19.5-6.01-29.54c-1.17-11.12-1.34-22.26-0.79-33.42c0.02-0.4,0.09-0.81-0.17-1.16
		c2.27,0.11,4.54,0.21,6.83,0.31c0.49,0.02,0.96-0.03,1.43-0.04c2.5,0.32,5,0.33,7.49,0.43c-0.04,10.78,0.4,21.52,2.17,32.18
		c0.81,4.84,1.76,9.69,4.07,14.12c0.58,1.09,1.27,2.15,2.31,2.89c1.37,0.97,2.82,0.92,4.11-0.19c2.59-2.25,3.9-5.3,5.08-8.39
		c2.68-7.08,4.31-14.42,5.6-21.88c0.93-5.4,1.69-10.82,2.23-16.27C109.64,301.59,109.66,301.19,110.05,300.94z"/>
	<path class="st6" d="M92.65,95.87c10.07-6.23,23.57-3.96,30.71,6.48c7.23,10.59,4.37,24.71-6.29,31.81
		c-10.03,6.69-24.39,3.9-31.01-6.02C78.65,117.04,81.43,103.36,92.65,95.87z"/>
</g>
</svg>
